#define humidity_width 11
#define humidity_height 12
static unsigned char humidity_bits[] = {
   0x0e, 0x00, 0x0e, 0x01, 0x1f, 0x01, 0x9f, 0x03, 0x8e, 0x03, 0xc0, 0x07,
   0xc8, 0x07, 0x88, 0x03, 0x1c, 0x00, 0x1c, 0x00, 0x3e, 0x00, 0x3e, 0x00 };
