#define humidity2_width 11
#define humidity2_height 12
static unsigned char humidity2_bits[] = {
   0x00, 0x01, 0x00, 0x01, 0x80, 0x03, 0x80, 0x03, 0xc0, 0x07, 0xc8, 0x07,
   0x88, 0x03, 0x1c, 0x00, 0x1c, 0x00, 0x3e, 0x00, 0x3e, 0x00, 0x1c, 0x00 };
