#define pressure_width 7
#define pressure_height 12
static unsigned char pressure_bits[] = {
   0x08, 0x1c, 0x36, 0x22, 0x2a, 0x2a, 0x2a, 0x6b, 0x7f, 0x7f, 0x3e, 0x1c };
