#define pressure2_width 15
#define pressure2_height 8
static unsigned char pressure2_bits[] = {
   0xc0, 0x01, 0xf0, 0x07, 0x9c, 0x1c, 0x0c, 0x18, 0x36, 0x34, 0x62, 0x20,
   0xc3, 0x60, 0x8f, 0x78 };
