#define speed_width 11
#define speed_height 11
static unsigned char speed_bits[] = {
   0x07, 0x04, 0x0e, 0x06, 0x1c, 0x07, 0x98, 0x03, 0xd0, 0x01, 0x20, 0x00,
   0x5c, 0x00, 0xce, 0x00, 0xc7, 0x01, 0x83, 0x03, 0x01, 0x07 };
