#define uvi_3_width 20
#define uvi_3_height 20
static unsigned char uvi_3_bits[] = {
   0x00, 0x00, 0x00, 0xff, 0x21, 0x00, 0x01, 0x0f, 0x02, 0x01, 0x3f, 0x00,
   0x01, 0x7f, 0x00, 0x01, 0xff, 0x00, 0x01, 0xff, 0x05, 0x01, 0xff, 0x01,
   0x01, 0x55, 0x03, 0x7d, 0x55, 0x03, 0x7d, 0x55, 0x03, 0x01, 0xb1, 0x03,
   0x7d, 0xff, 0x01, 0x7d, 0xff, 0x05, 0x01, 0xff, 0x00, 0x7d, 0x7f, 0x00,
   0x7d, 0x3f, 0x00, 0x01, 0x0f, 0x02, 0xff, 0x21, 0x00, 0x00, 0x00, 0x00 };
